<svg
    xmlns="http://www.w3.org/2000/svg"
    viewBox="0 0 300 200"
    width="300"
    height="200"
    role="img"
    aria-labelledby="title desc">
  <title id="title">Fetchez colored logo</title>
  <desc id="desc">Six rounded terrain-colored tiles.</desc>
  <defs>
    <mask id="trebuchet" maskUnits="userSpaceOnUse" x="0" y="0" width="300" height="200">
      <rect width="300" height="200" fill="white"/>
	  <path
	      d="M 4.6632104,182.55338 C 36.995797,129.54779 71.84619,91.265989 103.76969,52.479036 c 24.42414,-30.07881 49.25901,-42.939648 74.25916,-30.05134 22.29527,12.421472 39.63241,39.705379 53.19938,72.054293 9.30433,23.039671 39.49167,85.573671 47.23813,99.770941 l -6.76373,0.0676 C 263.09543,178.54579 232.17241,124.65232 221.80285,107.14449 208.03134,81.9049 192.25201,63.463397 174.38307,54.663702 151.14527,43.508489 128.19548,53.836824 105.77915,77.117546 74.019272,110.21703 41.176677,141.70074 4.6632104,182.55338 Z"
	      fill="black"
	      id="path1495"
	      style="stroke-width:0.929639;fill:#000000;fill-opacity:1"/>
	  <ellipse
	      fill="black"
	      id="path5275"
	      cx="10"
	      cy="180"
	      rx="20"
	      ry="20" />
	  <!-- turr -->
	  <rect
	      fill="black"
	      id="rect1868"
	      width="32"
	      height="32"
	      x="270"
	      y="168" />
 	  <rect
	      fill="black"
	      id="rect1869"
	      width="32"
	      height="32"
	      x="200"
	      y="168" />
	  <!-- <!-\- base -\-> -->
	  <!-- <rect -->
	  <!--     fill="black" -->
	  <!--     id="rect1869" -->
	  <!--     width="92" -->
	  <!--     height="10" -->
	  <!--     x="204" -->
	  <!--     y="180" /> -->
    </mask>
  </defs>

  <g mask="url(#trebuchet)">
    <rect x="4 " y="4 " width="92" height="92" rx="6" fill="#F5F3EC"/>
    <rect x="104" y="4 " width="92" height="92" rx="6" fill="#6BAED6"/>
    <rect x="204" y="4 " width="92" height="92" rx="6" fill="#3B82C4"/>
    <rect x="4 " y="104" width="92" height="92" rx="6" fill="#46525E"/>
    <rect x="104" y="104" width="92" height="92" rx="6" fill="#D8B65A"/>
    <rect x="204" y="104" width="92" height="92" rx="6" fill="#667382"/>
  </g>
</svg>
